<?xml version="1.0" standalone="no"?>
<!DOCTYPE svg PUBLIC "-//W3C//DTD SVG 20010904//EN"
 "http://www.w3.org/TR/2001/REC-SVG-20010904/DTD/svg10.dtd">
<svg version="1.0" xmlns="http://www.w3.org/2000/svg"
 width="690.000000pt" height="690.000000pt" viewBox="0 0 690.000000 690.000000"
 preserveAspectRatio="xMidYMid meet">

<g transform="translate(0.000000,690.000000) scale(0.100000,-0.100000)"
fill="#000000" stroke="none">
<path d="M3291 6679 c-431 -53 -788 -383 -910 -841 -78 -288 -32 -649 118
-933 107 -204 232 -364 484 -621 97 -99 177 -183 177 -185 0 -2 -90 -96 -199
-208 l-199 -205 -136 131 c-369 356 -654 524 -1001 589 -117 22 -322 22 -436
0 -347 -66 -630 -277 -779 -581 -110 -223 -135 -455 -75 -691 85 -336 353
-613 700 -723 135 -43 223 -55 390 -54 183 2 326 29 488 93 241 96 397 207
720 512 l134 128 104 -108 c58 -59 145 -149 193 -199 l89 -93 -159 -162 c-382
-391 -557 -678 -631 -1038 -21 -102 -23 -342 -4 -440 18 -92 68 -244 103 -315
81 -161 216 -323 349 -418 92 -65 240 -133 356 -164 145 -37 367 -43 513 -13
350 72 643 317 789 660 81 190 111 453 77 665 -30 180 -119 402 -230 575 -74
114 -239 310 -409 485 l-165 170 190 195 c105 107 195 197 200 199 5 1 80 -66
166 -151 295 -288 496 -424 762 -512 159 -53 270 -70 445 -69 220 1 371 37
541 127 110 59 184 117 280 220 436 467 337 1187 -212 1538 -301 192 -690 234
-1050 113 -264 -88 -500 -245 -787 -524 l-138 -135 -200 200 -200 201 164 169
c234 240 341 371 444 544 141 237 207 466 207 720 0 80 -6 174 -13 210 -90
458 -425 814 -865 921 -96 23 -280 32 -385 18z m358 -444 c308 -104 506 -411
488 -759 -11 -230 -100 -426 -301 -666 -107 -128 -366 -400 -381 -400 -27 0
-387 389 -484 523 -202 281 -262 546 -185 815 78 270 286 467 544 516 14 2 72
3 130 2 83 -3 122 -9 189 -31z m-2019 -2245 c138 -39 317 -140 465 -262 88
-73 324 -297 342 -325 16 -24 15 -26 -58 -99 -135 -137 -314 -288 -435 -366
-69 -44 -181 -97 -277 -131 -89 -31 -97 -32 -252 -32 -147 1 -167 3 -240 28
-205 69 -369 225 -437 415 -28 79 -34 209 -14 295 43 184 172 345 346 431 52
25 127 53 165 61 99 20 296 13 395 -15z m4010 15 c96 -20 159 -48 257 -112
151 -98 256 -244 288 -398 20 -94 19 -147 -5 -239 -29 -115 -73 -189 -165
-282 -137 -139 -308 -206 -525 -206 -113 -1 -210 17 -322 57 -191 69 -397 217
-631 452 l-108 109 159 156 c297 289 490 413 722 462 87 19 242 19 330 1z
m-1976 -402 l199 -202 -204 -211 -203 -211 -161 163 c-88 90 -179 184 -202
208 l-42 45 202 207 c111 115 204 207 207 205 3 -1 94 -93 204 -204z m-69
-1355 c386 -400 526 -648 542 -958 12 -233 -67 -434 -228 -584 -81 -75 -198
-139 -295 -162 -87 -21 -242 -20 -326 1 -241 62 -434 258 -504 515 -28 99 -26
309 3 415 47 170 115 301 249 476 86 112 391 439 409 439 7 0 75 -64 150 -142z"/>
</g>
</svg>
