<?xml version="1.0" standalone="no"?>
<!DOCTYPE svg PUBLIC "-//W3C//DTD SVG 20010904//EN"
 "http://www.w3.org/TR/2001/REC-SVG-20010904/DTD/svg10.dtd">
<svg version="1.0" xmlns="http://www.w3.org/2000/svg"
 width="1115.000000pt" height="557.000000pt" viewBox="0 0 1115.000000 557.000000"
 preserveAspectRatio="xMidYMid meet">

<g transform="translate(0.000000,557.000000) scale(0.100000,-0.100000)"
fill="#000000" stroke="none">
<path d="M1773 4800 c-222 -33 -404 -165 -498 -363 -45 -94 -75 -210 -75 -290
0 -74 29 -218 57 -282 49 -113 133 -225 275 -371 76 -77 138 -143 138 -146 0
-8 -169 -172 -181 -177 -6 -1 -58 44 -117 101 -151 147 -233 212 -326 257
-114 56 -190 73 -321 74 -202 0 -337 -54 -476 -193 -70 -70 -94 -102 -128
-172 -94 -193 -94 -377 0 -568 54 -109 160 -218 266 -273 201 -104 459 -105
664 -1 111 55 149 84 294 225 73 71 136 129 141 129 10 0 184 -171 184 -181 0
-3 -54 -59 -121 -125 -143 -141 -195 -205 -255 -318 -64 -120 -87 -214 -87
-361 -1 -143 15 -214 74 -332 104 -208 313 -344 551 -360 158 -10 276 18 411
98 122 72 214 175 273 304 78 169 82 369 11 544 -58 144 -105 209 -279 386
l-168 170 90 89 89 90 133 -130 c254 -248 394 -312 660 -302 147 6 225 27 336
89 130 74 247 228 288 379 27 100 24 254 -6 354 -50 164 -178 314 -335 391
-109 53 -172 66 -313 67 -143 1 -208 -14 -327 -72 -110 -54 -200 -127 -330
-267 -43 -46 -82 -83 -89 -83 -6 0 -52 40 -101 90 l-89 90 165 167 c207 211
264 295 305 453 21 79 23 234 5 310 -84 345 -422 563 -788 510z m279 -292
c152 -70 247 -228 235 -392 -10 -146 -56 -223 -254 -426 l-152 -155 -126 125
c-210 208 -272 324 -263 498 5 110 43 198 116 271 84 84 160 112 297 108 72
-2 101 -8 147 -29z m-1196 -1188 c32 -11 82 -36 111 -55 52 -35 323 -291 323
-305 0 -12 -204 -214 -274 -273 -175 -145 -413 -153 -555 -18 -61 57 -88 111
-107 208 -25 131 5 246 90 340 81 90 151 121 277 122 52 1 95 -5 135 -19z
m2334 -12 c118 -55 198 -161 221 -296 28 -161 -61 -331 -211 -401 -43 -20 -74
-27 -145 -29 -109 -4 -183 12 -263 60 -59 35 -332 292 -332 313 0 19 252 259
322 306 90 61 154 80 263 76 71 -2 101 -8 145 -29z m-1218 -255 c49 -48 88
-92 88 -98 0 -6 -38 -48 -85 -95 l-84 -84 -93 89 c-51 49 -95 94 -97 98 -4 11
159 177 174 177 5 0 49 -39 97 -87z m50 -821 c212 -215 263 -309 263 -487 0
-91 -3 -106 -32 -166 -76 -163 -217 -247 -399 -237 -105 6 -192 45 -257 118
-76 85 -106 169 -107 301 0 114 45 239 120 334 38 49 261 275 270 275 4 0 67
-62 142 -138z"/>
<path d="M4315 3876 c-65 -21 -97 -42 -152 -98 -111 -115 -155 -272 -169 -603
-8 -185 8 -399 37 -514 43 -167 124 -271 244 -311 55 -18 83 -22 163 -18 89 3
103 7 162 39 108 59 168 161 186 317 l6 59 -77 6 c-43 4 -97 7 -120 7 l-42 0
-6 -51 c-13 -108 -74 -170 -147 -149 -106 30 -144 169 -143 525 1 401 47 567
161 582 39 5 45 3 76 -30 27 -28 36 -50 45 -100 6 -35 11 -76 11 -90 l0 -27
121 0 122 0 -7 88 c-13 174 -77 290 -191 347 -52 26 -73 30 -150 32 -54 2
-106 -3 -130 -11z"/>
<path d="M6868 3871 c-97 -38 -140 -77 -186 -167 -29 -58 -45 -157 -37 -237
16 -171 82 -266 300 -433 184 -140 219 -192 219 -314 -1 -97 -40 -158 -116
-178 -106 -29 -186 43 -195 177 -8 121 4 111 -135 111 l-121 0 6 -88 c8 -104
36 -202 74 -260 81 -118 244 -177 423 -152 94 13 152 41 213 102 88 88 129
232 108 383 -21 150 -95 250 -301 406 -52 39 -110 86 -128 103 -101 94 -129
260 -57 332 18 18 35 24 70 24 80 0 115 -58 115 -192 l0 -68 130 0 131 0 -6
78 c-10 117 -31 191 -73 252 -40 59 -111 113 -170 130 -61 17 -211 12 -264 -9z"/>
<path d="M5085 3848 c-4 -13 -130 -645 -235 -1183 -28 -143 -53 -268 -56 -277
-5 -17 5 -18 119 -18 l123 0 24 150 24 151 141 -3 140 -3 21 -110 c12 -60 24
-127 28 -147 l7 -38 123 0 123 0 -69 348 c-119 603 -158 803 -189 967 -17 88
-33 163 -35 167 -3 4 -68 8 -145 8 -103 0 -141 -3 -144 -12z m199 -738 c24
-129 42 -238 39 -242 -6 -11 -191 -10 -197 0 -3 5 10 96 29 203 19 107 39 226
44 264 22 144 24 148 33 75 4 -36 28 -171 52 -300z"/>
<path d="M5787 3853 c-4 -3 -7 -339 -7 -745 l0 -738 130 0 130 0 2 243 3 242
95 3 c113 4 176 20 250 64 125 76 190 233 190 463 0 126 -12 190 -52 272 -52
107 -137 169 -264 192 -63 12 -466 15 -477 4z m450 -229 c15 -11 39 -42 52
-68 45 -90 38 -333 -12 -407 -39 -58 -68 -72 -157 -77 l-80 -5 0 293 0 292 84
-3 c66 -3 91 -9 113 -25z"/>
<path d="M7510 3333 c0 -554 7 -678 41 -781 27 -80 97 -160 171 -193 47 -21
67 -24 183 -24 119 0 135 2 185 26 73 34 120 76 152 136 56 103 57 117 58 763
l1 595 -120 3 -120 3 -3 -603 c-3 -600 -3 -603 -25 -644 -55 -102 -194 -96
-248 11 -19 38 -20 65 -25 635 l-5 595 -122 3 -123 3 0 -528z"/>
<path d="M8450 3115 l0 -745 295 0 295 0 0 95 0 96 -170 -3 -170 -3 0 653 0
652 -125 0 -125 0 0 -745z"/>
<path d="M9180 3115 l0 -745 125 0 125 0 0 745 0 745 -125 0 -125 0 0 -745z"/>
<path d="M9580 3115 l0 -745 130 0 130 0 0 320 0 320 160 0 160 0 0 110 0 110
-160 0 -160 0 0 210 0 210 160 0 161 0 -3 103 -3 102 -287 3 -288 2 0 -745z"/>
<path d="M10205 3848 c2 -7 70 -212 150 -456 l145 -443 0 -290 0 -289 125 0
125 0 0 272 0 273 56 165 c31 91 103 300 160 466 57 166 104 304 104 308 0 4
-53 5 -117 4 l-117 -3 -37 -135 c-20 -74 -61 -224 -90 -333 -29 -108 -54 -196
-55 -194 -3 2 -42 153 -130 497 -19 74 -37 143 -40 153 -5 15 -21 17 -144 17
-107 0 -138 -3 -135 -12z"/>
</g>
</svg>
