<svg width="13" height="13" viewBox="0 0 13 13" fill="none" xmlns="http://www.w3.org/2000/svg">
<path d="M1.625 3.79175H3.25" stroke="#4A3427" stroke-width="1.5" stroke-linecap="round" stroke-linejoin="round"/>
<path d="M1.625 9.20825H4.875" stroke="#4A3427" stroke-width="1.5" stroke-linecap="round" stroke-linejoin="round"/>
<path d="M9.75 9.20825L11.375 9.20825" stroke="#4A3427" stroke-width="1.5" stroke-linecap="round" stroke-linejoin="round"/>
<path d="M8.125 3.79175L11.375 3.79175" stroke="#4A3427" stroke-width="1.5" stroke-linecap="round" stroke-linejoin="round"/>
<path d="M3.25 3.79175C3.25 3.28698 3.25 3.03459 3.33246 2.83551C3.44242 2.57006 3.65331 2.35916 3.91876 2.24921C4.11784 2.16675 4.37023 2.16675 4.875 2.16675C5.37977 2.16675 5.63216 2.16675 5.83124 2.24921C6.09669 2.35916 6.30758 2.57006 6.41754 2.83551C6.5 3.03459 6.5 3.28698 6.5 3.79175C6.5 4.29652 6.5 4.5489 6.41754 4.74799C6.30758 5.01344 6.09669 5.22433 5.83124 5.33428C5.63216 5.41675 5.37977 5.41675 4.875 5.41675C4.37023 5.41675 4.11784 5.41675 3.91876 5.33428C3.65331 5.22433 3.44242 5.01344 3.33246 4.74799C3.25 4.5489 3.25 4.29652 3.25 3.79175Z" stroke="#4A3427" stroke-width="1.5"/>
<path d="M6.5 9.20825C6.5 8.70348 6.5 8.4511 6.58246 8.25201C6.69242 7.98656 6.90331 7.77567 7.16876 7.66572C7.36784 7.58325 7.62023 7.58325 8.125 7.58325C8.62977 7.58325 8.88216 7.58325 9.08124 7.66572C9.34669 7.77567 9.55758 7.98656 9.66754 8.25201C9.75 8.4511 9.75 8.70348 9.75 9.20825C9.75 9.71302 9.75 9.96541 9.66754 10.1645C9.55758 10.4299 9.34669 10.6408 9.08124 10.7508C8.88216 10.8333 8.62977 10.8333 8.125 10.8333C7.62023 10.8333 7.36784 10.8333 7.16876 10.7508C6.90331 10.6408 6.69242 10.4299 6.58246 10.1645C6.5 9.96541 6.5 9.71302 6.5 9.20825Z" stroke="#4A3427" stroke-width="1.5"/>
</svg>
