<svg width="17" height="17" viewBox="0 0 17 17" fill="none" xmlns="http://www.w3.org/2000/svg">
<path d="M15.7244 4.33333C15.7939 4.182 15.831 4.02143 15.8581 3.81067C16.0266 2.50067 16.1108 1.84567 15.7267 1.42283C15.3426 1 14.6633 1 13.3047 1H3.69527C2.3367 1 1.65742 1 1.27329 1.42283C0.889174 1.84567 0.973429 2.50067 1.14194 3.81067C1.19115 4.19325 1.273 4.41044 1.52278 4.70722C2.3297 5.66596 3.80751 7.37135 5.88121 8.92174C6.07071 9.0634 6.19507 9.29495 6.21606 9.55117C6.44967 12.4053 6.66369 14.3551 6.77731 15.3148C6.83692 15.8183 7.39505 16.2055 7.85501 15.8803C8.62764 15.3338 10.071 14.7214 10.2618 13.7035C10.3519 13.2223 10.4839 12.3824 10.6328 11" stroke="#4A3427" stroke-width="1.25" stroke-linecap="round" stroke-linejoin="round"/>
<path d="M13.0834 5.16675V11.0001M16 8.08341L10.1667 8.08341" stroke="#4A3427" stroke-width="1.25" stroke-linecap="round" stroke-linejoin="round"/>
</svg>
