<svg width="27" height="27" viewBox="0 0 27 27" fill="none" xmlns="http://www.w3.org/2000/svg">
<g clip-path="url(#clip0_632_2441)">
<path d="M19.8526 3.375C20.4213 3.375 20.9667 3.60835 21.3688 4.02371C21.7709 4.43908 21.9968 5.00243 21.9968 5.58984C21.9968 6.17726 21.7709 6.74061 21.3688 7.15597C20.9667 7.57134 20.4213 7.80469 19.8526 7.80469C19.284 7.80469 18.7386 7.57134 18.3365 7.15597C17.9344 6.74061 17.7085 6.17726 17.7085 5.58984C17.7085 5.00243 17.9344 4.43908 18.3365 4.02371C18.7386 3.60835 19.284 3.375 19.8526 3.375ZM16.6364 21.0938H15.8413C15.3544 21.0938 15.0104 20.6 15.1623 20.1201L16.8732 14.823L15.3589 17.4254C14.9524 18.1222 14.0724 18.3483 13.3979 17.9284C12.7233 17.5085 12.5045 16.5995 12.911 15.9027L15.3053 11.7868C16.212 10.2318 17.838 9.28125 19.5935 9.28125H20.1117C21.8672 9.28125 23.4932 10.2318 24.4 11.7868L26.7943 15.9027C27.2008 16.5995 26.9819 17.5085 26.3074 17.9284C25.6329 18.3483 24.7529 18.1222 24.3464 17.4254L22.8321 14.8276L24.5429 20.1201C24.6993 20.6 24.3509 21.0938 23.864 21.0938H23.0688V25.5234C23.0688 26.3402 22.4301 27 21.6394 27C20.8488 27 20.21 26.3402 20.21 25.5234V21.0938H19.4953V25.5234C19.4953 26.3402 18.8565 27 18.0658 27C17.2752 27 16.6364 26.3402 16.6364 25.5234V21.0938Z" fill="#4A3427"/>
</g>
<path d="M2.80103 9.82568C2.48594 9.95177 2.27672 10.2813 2.27661 10.6519V10.978C2.27676 11.3041 2.5052 11.5764 2.77368 11.5767H11.512C11.7813 11.5766 12.0138 11.3032 12.0139 10.978V10.6519L12.0042 10.5151C11.9663 10.2467 11.8181 10.0131 11.6028 9.88232L11.4895 9.82568L7.14771 8.07568L2.80103 9.82568ZM13.1946 11.1665C13.1098 12.0754 12.4048 12.8364 11.512 12.8364H2.77368C1.81968 12.8362 1.09206 11.9648 1.09204 10.978V10.6528C1.09204 9.77478 1.59646 8.97026 2.37817 8.65576L6.59302 6.95557L6.58228 5.97314C6.58052 5.81771 6.63894 5.66841 6.74243 5.55713L6.82739 5.48291C6.91887 5.41833 7.02776 5.38331 7.13989 5.3833H7.14185C7.59344 5.3833 7.97192 4.9906 7.97192 4.49463C7.97191 4.00002 7.59342 3.60596 7.14185 3.60596C7.02167 3.60607 6.87781 3.65405 6.74146 3.74365C6.6396 3.81065 6.54605 3.89906 6.4729 4.00049L6.40649 4.10596C6.30936 4.2886 6.12428 4.41255 5.91724 4.4126H5.90845C5.71644 4.4126 5.54336 4.31058 5.43677 4.15381L5.39478 4.0835C5.29511 3.88678 5.30535 3.64297 5.42212 3.45654L5.5022 3.33643C5.69888 3.06057 5.95415 2.82863 6.22192 2.65967C6.52636 2.46757 6.85553 2.35215 7.14087 2.35205C8.26077 2.35205 9.16135 3.3178 9.16138 4.49268C9.16138 5.43741 8.57787 6.24093 7.7688 6.52295L7.77856 6.95557L11.9114 8.65576H11.9104C12.6926 8.96981 13.1848 9.77332 13.1868 10.6479L13.2034 10.978V10.9829L13.1946 11.1665Z" fill="#4A3427" stroke="#4A3427" stroke-width="0.2"/>
<defs>
<clipPath id="clip0_632_2441">
<rect width="14.2943" height="23.625" fill="white" transform="translate(12.7058 3.375)"/>
</clipPath>
</defs>
</svg>
