<svg width="16" height="16" viewBox="0 0 16 16" fill="none" xmlns="http://www.w3.org/2000/svg">
<path d="M15.0401 4.30145L9.44161 0.43872C9.02543 0.153855 8.52049 0 8.00171 0C7.48294 0 6.97799 0.153855 6.56182 0.43872L0.963359 4.30145C0.665052 4.50704 0.422756 4.77357 0.255576 5.08001C0.0883957 5.38644 0.000903608 5.72441 0 6.06726V13.7927C0.00126837 14.3778 0.254513 14.9385 0.704294 15.3522C1.15407 15.7659 1.76374 15.9988 2.39983 16H5.00193V13.2945C5.0022 12.5628 5.31833 11.8612 5.88084 11.3438C6.44335 10.8264 7.2062 10.5357 8.00171 10.5354C8.79703 10.5363 9.55951 10.8272 10.1219 11.3445C10.6843 11.8617 11.0006 12.563 11.0015 13.2945V16H13.6002C14.2364 15.9993 14.8464 15.7666 15.2963 15.3528C15.7462 14.939 15.9993 14.3779 16 13.7927V6.06726C15.9986 5.72482 15.9113 5.38729 15.7448 5.081C15.5783 4.7747 15.3371 4.50793 15.0401 4.30145Z" fill="#4A3427"/>
</svg>
