<svg width="3" height="5" viewBox="0 0 3 5" fill="none" xmlns="http://www.w3.org/2000/svg">
<path d="M1.512 0.778756C1.39067 0.806756 1.27167 0.820756 1.155 0.820756C1.043 0.820756 0.931 0.813756 0.819 0.799756C0.791 0.669089 0.777 0.538422 0.777 0.407756C0.777 0.272422 0.781667 0.172089 0.791 0.106755C0.893667 0.0834221 1.001 0.0717555 1.113 0.0717555C1.22967 0.0717555 1.35333 0.0764222 1.484 0.0857557C1.512 0.207089 1.526 0.326089 1.526 0.442756C1.526 0.554756 1.52133 0.666756 1.512 0.778756ZM0.238 1.51376C0.634667 1.44376 0.942667 1.40876 1.162 1.40876C1.38133 1.40876 1.52133 1.41342 1.582 1.42276C1.582 1.53476 1.568 1.65842 1.54 1.79376C1.512 1.92909 1.49567 1.99442 1.491 1.98976L1.428 4.52376L2.016 4.57976C2.016 4.71042 1.97633 4.85042 1.897 4.99976H0.287L0.266 4.75476C0.480667 4.68009 0.690667 4.62409 0.896 4.58676C0.868 3.42009 0.844667 2.54509 0.826 1.96176C0.555333 1.96176 0.35 1.93376 0.21 1.87776L0.238 1.51376Z" fill="black"/>
</svg>
