<svg width="18" height="18" viewBox="0 0 18 18" fill="none" xmlns="http://www.w3.org/2000/svg">
<g clip-path="url(#clip0_479_7014)">
<path d="M11.7225 -0.013092C11.7623 -0.0148141 11.8021 -0.0165363 11.8432 -0.0183105C11.9532 9.15527e-05 11.9532 9.15527e-05 12.0247 0.0662842C12.1221 0.220812 12.2151 0.377075 12.3047 0.536224C12.3245 0.571273 12.3443 0.606321 12.3646 0.642431C12.5146 0.911931 12.6542 1.18569 12.7881 1.46347C12.8062 1.50073 12.8242 1.538 12.8428 1.57639C12.9163 1.73132 12.9799 1.86899 13.0079 2.03915C13.0311 2.03915 13.0543 2.03915 13.0782 2.03915C13.0866 2.01139 13.0866 2.01139 13.0952 1.98307C13.165 1.76292 13.2549 1.55711 13.355 1.34921C13.3716 1.31467 13.3882 1.28012 13.4053 1.24453C13.5341 0.9803 13.6722 0.722038 13.8165 0.465912C13.8358 0.431396 13.8552 0.39688 13.8752 0.361319C14.0355 0.081155 14.0355 0.081155 14.1329 9.15527e-05C14.5223 -0.0671531 14.85 0.0688376 15.1744 0.272552C15.4083 0.437767 15.6521 0.620726 15.7852 0.878998C15.8028 0.984467 15.8028 0.984467 15.7852 1.08994C15.6681 1.21996 15.5378 1.32519 15.3985 1.43051C15.3786 1.44568 15.3586 1.46085 15.3381 1.47648C15.2763 1.52353 15.2143 1.57042 15.1524 1.61728C14.8906 1.81556 14.6329 2.01769 14.379 2.22592C14.3411 2.25687 14.3411 2.25687 14.3024 2.28844C14.1685 2.39886 14.0422 2.51164 13.9219 2.63681C13.9864 2.65156 13.9864 2.65156 14.0522 2.66661C15.5129 3.01033 15.5129 3.01033 15.8555 3.51572C16.056 3.88607 16.1372 4.26324 16.0408 4.68192C15.9457 4.95236 15.7974 5.18696 15.6456 5.4282C15.3668 5.87435 15.1916 6.32561 15.293 6.85556C15.3534 7.01295 15.4321 7.15818 15.5127 7.306C15.5585 7.39311 15.6034 7.48059 15.6483 7.56816C15.6598 7.59054 15.6713 7.61291 15.6831 7.63597C16.6881 9.60835 17.2698 11.8579 17.6485 14.0274C17.6555 14.0678 17.6555 14.0678 17.6627 14.1089C17.7766 14.765 17.8717 15.422 17.9429 16.0841C17.9459 16.112 17.9489 16.14 17.952 16.1688C18.028 16.8826 18.028 16.8826 17.9297 17.0157C17.2264 17.5234 16.3029 17.7081 15.4666 17.8507C15.4259 17.8577 15.3853 17.8646 15.3434 17.8718C14.633 17.9865 13.9248 18.0125 13.2063 18.0112C13.1097 18.011 13.013 18.0113 12.9164 18.0119C11.3893 18.022 9.42966 17.9666 8.15629 17.0157C8.07113 16.888 8.08017 16.8061 8.09038 16.6598C8.09211 16.6327 8.09384 16.6056 8.09563 16.5777C8.27172 14.1489 8.80933 11.6649 9.66801 9.38681C9.68158 9.35063 9.69515 9.31446 9.70913 9.27719C9.97443 8.57451 10.2668 7.88453 10.6169 7.21953C10.8209 6.82909 10.8703 6.54557 10.765 6.10822C10.6572 5.77298 10.4797 5.47078 10.292 5.17465C10.0413 4.77233 9.96145 4.41881 10.035 3.94363C10.1195 3.60741 10.3388 3.32938 10.6172 3.129C10.7268 3.06708 10.8396 3.01703 10.9556 2.9686C11.0032 2.94837 11.0032 2.94837 11.0517 2.92774C11.369 2.79811 11.6943 2.71892 12.0298 2.65192C12.0967 2.63871 12.0967 2.63871 12.1641 2.60165C11.854 2.33534 11.5381 2.07843 11.2149 1.82822C11.1951 1.81284 11.1753 1.79747 11.155 1.78163C10.9224 1.60083 10.6878 1.42406 10.4465 1.25487C10.3411 1.17171 10.3044 1.11021 10.2811 0.977875C10.3239 0.687154 10.6075 0.495735 10.8262 0.320618C11.0944 0.134777 11.3949 -0.0034255 11.7225 -0.013092Z" fill="#4A3427"/>
<path d="M11.7225 -0.013092C11.7623 -0.0148141 11.8021 -0.0165363 11.8432 -0.0183105C11.9532 9.15527e-05 11.9532 9.15527e-05 12.0247 0.0662842C12.1221 0.220812 12.2151 0.377075 12.3047 0.536224C12.3245 0.571273 12.3443 0.606321 12.3646 0.642431C12.5146 0.911931 12.6542 1.18569 12.7881 1.46347C12.8062 1.50073 12.8242 1.538 12.8428 1.57639C12.9163 1.73132 12.9799 1.86899 13.0079 2.03915C13.0311 2.03915 13.0543 2.03915 13.0782 2.03915C13.0866 2.01139 13.0866 2.01139 13.0952 1.98307C13.165 1.76292 13.2549 1.55711 13.355 1.34921C13.3716 1.31467 13.3882 1.28012 13.4053 1.24453C13.5341 0.9803 13.6722 0.722038 13.8165 0.465912C13.8358 0.431396 13.8552 0.39688 13.8752 0.361319C14.0355 0.081155 14.0355 0.081155 14.1329 9.15527e-05C14.5223 -0.0671531 14.85 0.0688376 15.1744 0.272552C15.4083 0.437767 15.6521 0.620726 15.7852 0.878998C15.8028 0.984467 15.8028 0.984467 15.7852 1.08994C15.6681 1.21996 15.5378 1.32519 15.3985 1.43051C15.3786 1.44568 15.3586 1.46085 15.3381 1.47648C15.2763 1.52353 15.2143 1.57042 15.1524 1.61728C14.8906 1.81556 14.6329 2.01769 14.379 2.22592C14.3411 2.25687 14.3411 2.25687 14.3024 2.28844C14.1685 2.39886 14.0422 2.51164 13.9219 2.63681C13.9864 2.65156 13.9864 2.65156 14.0522 2.66661C15.5129 3.01033 15.5129 3.01033 15.8555 3.51572C16.056 3.88607 16.1372 4.26324 16.0408 4.68192C15.9457 4.95236 15.7974 5.18696 15.6456 5.4282C15.3668 5.87435 15.1916 6.32561 15.293 6.85556C15.3534 7.01295 15.4321 7.15818 15.5127 7.306C15.5585 7.39311 15.6034 7.48059 15.6483 7.56816C15.6598 7.59054 15.6713 7.61291 15.6831 7.63597C16.6881 9.60835 17.2698 11.8579 17.6485 14.0274C17.6555 14.0678 17.6555 14.0678 17.6627 14.1089C17.7766 14.765 17.8717 15.422 17.9429 16.0841C17.9459 16.112 17.9489 16.14 17.952 16.1688C18.028 16.8826 18.028 16.8826 17.9297 17.0157C17.2264 17.5234 16.3029 17.7081 15.4666 17.8507C15.4259 17.8577 15.3853 17.8646 15.3434 17.8718C14.633 17.9865 13.9248 18.0125 13.2063 18.0112C13.1097 18.011 13.013 18.0113 12.9164 18.0119C11.3893 18.022 9.42966 17.9666 8.15629 17.0157C8.07113 16.888 8.08017 16.8061 8.09038 16.6598C8.09211 16.6327 8.09384 16.6056 8.09563 16.5777C8.27172 14.1489 8.80933 11.6649 9.66801 9.38681C9.68158 9.35063 9.69515 9.31446 9.70913 9.27719C9.97443 8.57451 10.2668 7.88453 10.6169 7.21953C10.8209 6.82909 10.8703 6.54557 10.765 6.10822C10.6572 5.77298 10.4797 5.47078 10.292 5.17465C10.0413 4.77233 9.96145 4.41881 10.035 3.94363C10.1195 3.60741 10.3388 3.32938 10.6172 3.129C10.7268 3.06708 10.8396 3.01703 10.9556 2.9686C11.0032 2.94837 11.0032 2.94837 11.0517 2.92774C11.369 2.79811 11.6943 2.71892 12.0298 2.65192C12.0967 2.63871 12.0967 2.63871 12.1641 2.60165C11.854 2.33534 11.5381 2.07843 11.2149 1.82822C11.1951 1.81284 11.1753 1.79747 11.155 1.78163C10.9224 1.60083 10.6878 1.42406 10.4465 1.25487C10.3411 1.17171 10.3044 1.11021 10.2811 0.977875C10.3239 0.687154 10.6075 0.495735 10.8262 0.320618C11.0944 0.134777 11.3949 -0.0034255 11.7225 -0.013092ZM10.793 3.72665C10.641 3.91466 10.5622 4.10912 10.5718 4.3537C10.6092 4.63009 10.7663 4.85572 10.9117 5.08676C11.0851 5.36269 11.2169 5.63198 11.3204 5.9415C11.3296 5.96855 11.3389 5.99561 11.3485 6.02348C11.397 6.19611 11.3997 6.37397 11.4039 6.55234C11.4048 6.57637 11.4057 6.60041 11.4067 6.62517C11.4077 6.97695 11.2336 7.28728 11.0743 7.59164C10.6864 8.35203 10.3733 9.14484 10.0899 9.94931C10.0755 9.98996 10.0611 10.0306 10.0463 10.0725C9.43093 11.8229 9.0418 13.6367 8.7957 15.4732C8.79014 15.5142 8.79014 15.5142 8.78447 15.5561C8.73331 15.9367 8.70125 16.3156 8.68364 16.6993C10.0321 17.3904 11.6154 17.4479 13.1045 17.4464C13.1567 17.4463 13.1567 17.4463 13.2098 17.4463C13.551 17.4455 13.8916 17.4405 14.2323 17.4217C14.2701 17.4196 14.2701 17.4196 14.3087 17.4176C14.4242 17.4193 14.4242 17.4193 14.5196 17.3673C14.5237 17.3178 14.5255 17.2682 14.5262 17.2185C14.5271 17.1704 14.5271 17.1704 14.528 17.1212C14.5285 17.0857 14.529 17.0502 14.5295 17.0136C14.5301 16.9763 14.5307 16.9391 14.5314 16.9008C14.5335 16.7767 14.5353 16.6526 14.5372 16.5285C14.5386 16.442 14.54 16.3556 14.5415 16.2691C14.5453 16.0403 14.5489 15.8114 14.5525 15.5826C14.5582 15.2189 14.5641 14.8552 14.5702 14.4914C14.5723 14.3652 14.5742 14.239 14.5761 14.1129C14.5797 13.8851 14.5843 13.6575 14.5899 13.4298C14.5911 13.3752 14.5911 13.3752 14.5924 13.3196C14.595 13.216 14.5983 13.1125 14.602 13.009C14.6027 12.9782 14.6034 12.9475 14.6042 12.9158C14.6128 12.7065 14.6128 12.7065 14.6746 12.631C14.744 12.5751 14.7828 12.5708 14.8711 12.5706C14.907 12.5696 14.907 12.5696 14.9436 12.5686C15.0437 12.5942 15.0622 12.6393 15.1172 12.7267C15.153 12.8197 15.1851 12.9114 15.2151 13.0063C15.2242 13.0342 15.2332 13.0622 15.2426 13.091C15.2722 13.1833 15.3013 13.2758 15.3304 13.3683C15.3404 13.4001 15.3505 13.4319 15.3608 13.4647C15.6697 14.4472 15.9208 15.4411 16.085 16.4581C16.1095 16.6063 16.1371 16.7539 16.1653 16.9015C16.1735 16.9448 16.1817 16.9881 16.1902 17.0327C16.1958 17.0619 16.2013 17.0911 16.2071 17.1212C16.4436 17.0921 16.6614 17.033 16.8838 16.9498C16.9187 16.9369 16.9187 16.9369 16.9542 16.9238C17.1133 16.8625 17.255 16.7851 17.4024 16.6993C17.383 16.2506 17.337 15.8084 17.2771 15.3634C17.2726 15.3294 17.2681 15.2954 17.2634 15.2604C17.1646 14.5266 17.03 13.802 16.875 13.0782C16.8698 13.0538 16.8646 13.0294 16.8593 13.0042C16.433 11.0049 15.7668 9.02974 14.8192 7.2166C14.6221 6.79348 14.6434 6.29083 14.7872 5.8532C14.9332 5.486 15.1244 5.14426 15.3323 4.80888C15.4883 4.55687 15.4929 4.33552 15.4688 4.04306C15.4119 3.86669 15.2867 3.70908 15.1222 3.6216C15.0401 3.58461 14.9572 3.55077 14.8733 3.51791C14.8427 3.50577 14.8121 3.49362 14.7805 3.4811C13.6581 3.05203 11.7867 2.86706 10.793 3.72665Z" fill="#4A3427"/>
<path d="M5.13267 0.313447C5.95191 0.882339 6.36216 1.8177 6.55004 2.77081C6.55608 2.80102 6.56211 2.83123 6.56833 2.86236C6.60661 3.07018 6.61621 3.26946 6.60937 3.48053C6.64055 3.4769 6.67172 3.47328 6.70385 3.46954C6.8203 3.48053 6.8203 3.48053 6.91405 3.5515C7.01591 3.68164 7.021 3.77945 7.01883 3.93811C7.01914 3.96597 7.01945 3.99383 7.01976 4.02254C7.02054 4.11435 7.02003 4.2061 7.01943 4.29791C7.01955 4.36187 7.01972 4.42584 7.01994 4.4898C7.0202 4.62373 7.01982 4.75765 7.019 4.89159C7.018 5.06313 7.01858 5.23463 7.01963 5.40618C7.02027 5.53822 7.02006 5.67025 7.01961 5.8023C7.01949 5.86554 7.01963 5.92878 7.02004 5.99203C7.02049 6.08049 7.01981 6.16887 7.01883 6.25732C7.01919 6.28337 7.01954 6.30942 7.01991 6.33626C7.01725 6.46617 7.00262 6.53085 6.92132 6.63372C6.79917 6.73189 6.74287 6.73691 6.5879 6.73699C6.56502 6.73724 6.54214 6.73749 6.51857 6.73775C6.44218 6.73836 6.36585 6.73773 6.28945 6.73709C6.23458 6.73727 6.17971 6.73753 6.12484 6.73785C5.97601 6.73851 5.82719 6.73805 5.67836 6.73736C5.5226 6.73678 5.36685 6.73709 5.21109 6.73727C4.94957 6.73743 4.68805 6.73687 4.42653 6.73589C4.12412 6.73476 3.82172 6.73476 3.51931 6.73537C3.22841 6.73593 2.93751 6.73569 2.64662 6.73509C2.5228 6.73485 2.39899 6.73489 2.27517 6.73515C2.12941 6.73541 1.98367 6.73499 1.83792 6.73403C1.7844 6.73378 1.73089 6.73378 1.67737 6.73403C1.60436 6.73434 1.53141 6.73378 1.4584 6.733C1.41754 6.7329 1.37667 6.7328 1.33457 6.7327C1.20755 6.71099 1.16585 6.67688 1.08984 6.57428C1.07596 6.47477 1.07059 6.38893 1.07164 6.28946C1.07139 6.26086 1.07115 6.23226 1.07089 6.2028C1.07027 6.10835 1.07068 6.01394 1.07116 5.91949C1.07106 5.85382 1.07093 5.78815 1.07075 5.72248C1.07054 5.58488 1.07084 5.44729 1.0715 5.30968C1.0723 5.13329 1.07184 4.95693 1.071 4.78054C1.07049 4.64494 1.07065 4.50935 1.07102 4.37375C1.07111 4.30871 1.071 4.24367 1.07067 4.17863C1.07031 4.08773 1.07086 3.99688 1.07164 3.90598C1.07135 3.87909 1.07107 3.8522 1.07078 3.8245C1.07272 3.70269 1.08052 3.63368 1.15414 3.53469C1.24897 3.4674 1.32673 3.4558 1.4414 3.44537C1.44595 3.39351 1.44595 3.39351 1.4506 3.34059C1.5567 2.24832 1.91127 1.17488 2.76882 0.44487C3.49251 -0.106656 4.3579 -0.165352 5.13267 0.313447ZM2.8828 1.16022C2.54944 1.56778 2.32143 2.04201 2.18407 2.54889C2.17735 2.57341 2.17064 2.59794 2.16371 2.6232C2.09304 2.90788 2.07392 3.18415 2.03905 3.48053C3.35003 3.48053 4.66101 3.48053 6.01171 3.48053C6.01171 3.24095 6.00141 3.05572 5.95458 2.82794C5.94837 2.79751 5.94215 2.76709 5.93575 2.73573C5.8118 2.16139 5.57844 1.64953 5.20312 1.19537C5.18118 1.16632 5.15925 1.13728 5.13665 1.10735C4.88942 0.814791 4.52957 0.622443 4.15282 0.564759C3.64417 0.53202 3.21882 0.804063 2.8828 1.16022Z" fill="#4A3427"/>
<path d="M7.45311 8.4727C7.79625 8.68979 7.94717 9.08001 8.05076 9.45708C8.137 9.91293 8.04108 10.2928 7.80467 10.6875C7.78062 10.7115 7.75657 10.7354 7.7318 10.7601C7.63491 10.9077 7.64539 11.0321 7.64756 11.205C7.64732 11.2379 7.64707 11.2708 7.64681 11.3047C7.64604 11.4095 7.64614 11.5143 7.64647 11.6192C7.64689 11.7573 7.64641 11.8953 7.64537 12.0334C7.64596 12.0808 7.64596 12.0808 7.64657 12.1292C7.6454 12.2751 7.64111 12.3548 7.56414 12.4821C7.38549 12.6439 7.12187 12.5939 6.895 12.5948C6.85 12.5955 6.805 12.5962 6.75863 12.597C6.71526 12.5972 6.67189 12.5973 6.62721 12.5975C6.58756 12.5978 6.54791 12.5982 6.50706 12.5985C6.38296 12.5842 6.31963 12.5589 6.22264 12.4805C6.15206 12.3541 6.14393 12.2461 6.14546 12.103C6.14568 12.0655 6.14591 12.028 6.14614 11.9894C6.14703 11.9312 6.14703 11.9312 6.14793 11.8719C6.14825 11.8324 6.14856 11.793 6.14889 11.7523C6.14972 11.6552 6.15087 11.5581 6.15232 11.461C5.8466 11.6701 5.54892 11.8772 5.27768 12.1302C4.97247 12.4129 4.63486 12.5875 4.2122 12.5922C4.17677 12.5927 4.14134 12.5931 4.10484 12.5936C4.06697 12.5938 4.0291 12.5941 3.99008 12.5944C3.93126 12.5948 3.93126 12.5948 3.87125 12.5952C3.78848 12.5957 3.70571 12.5961 3.62294 12.5964C3.49617 12.597 3.36943 12.5985 3.24266 12.6001C3.16221 12.6004 3.08176 12.6007 3.00131 12.601C2.96337 12.6016 2.92542 12.6022 2.88633 12.6028C2.83336 12.6027 2.83336 12.6027 2.77931 12.6025C2.73279 12.6028 2.73279 12.6028 2.68534 12.6031C2.57414 12.5804 2.53251 12.5313 2.46092 12.4454C2.35263 12.2288 2.40795 11.8603 2.48069 11.639C2.66066 11.2142 3.06596 10.9311 3.48045 10.7579C3.58085 10.7269 3.67215 10.717 3.77708 10.7161C3.81617 10.7154 3.81617 10.7154 3.85604 10.7146C3.93748 10.7227 3.93748 10.7227 4.02166 10.764C4.15431 10.806 4.21112 10.764 4.33299 10.7007C4.96894 10.3678 5.53089 9.88425 6.07103 9.41643C6.17482 9.32678 6.28068 9.23998 6.38743 9.15386C6.52143 9.04532 6.6496 8.9324 6.77635 8.81548C7.20224 8.42709 7.20224 8.42709 7.45311 8.4727Z" fill="#4A3427"/>
<path d="M0.843679 11.5665C1.02321 11.6603 1.163 11.8027 1.3117 11.9388C1.43314 12.0477 1.5596 12.1495 1.68647 12.252C1.78521 12.3336 1.88156 12.4171 1.97764 12.5018C2.25808 12.7486 2.54907 12.9782 2.84828 13.2018C2.89504 13.2368 2.94161 13.2721 2.988 13.3076C3.14924 13.4306 3.31469 13.5426 3.48699 13.6495C3.51108 13.6647 3.53516 13.6799 3.55998 13.6956C3.78066 13.8428 3.78066 13.8428 4.03411 13.8758C4.11139 13.8589 4.11139 13.8589 4.14837 13.8165C4.51038 13.7747 4.82876 13.9394 5.11516 14.1483C5.39148 14.3686 5.60635 14.6167 5.66009 14.9766C5.66416 15.0593 5.66623 15.1421 5.66668 15.2249C5.66718 15.2674 5.66767 15.3098 5.66819 15.3536C5.66049 15.463 5.6516 15.5205 5.58977 15.6094C5.47546 15.6856 5.44286 15.6887 5.31065 15.6894C5.25764 15.6899 5.25764 15.6899 5.20355 15.6904C5.16532 15.6904 5.12709 15.6904 5.0877 15.6903C5.04819 15.6905 5.00868 15.6906 4.96797 15.6908C4.88416 15.691 4.80034 15.691 4.71653 15.6908C4.5893 15.6907 4.46209 15.6916 4.33486 15.6925C4.25329 15.6925 4.17171 15.6926 4.09014 15.6925C4.05248 15.6928 4.01482 15.6932 3.97601 15.6935C3.427 15.6902 3.09935 15.5063 2.71051 15.134C2.46588 14.9067 2.17948 14.733 1.89837 14.5547C1.89892 14.5828 1.89947 14.6108 1.90004 14.6397C1.90223 14.7666 1.9036 14.8936 1.90496 15.0206C1.90584 15.0647 1.90673 15.1088 1.90764 15.1542C1.90798 15.1966 1.90832 15.2389 1.90867 15.2826C1.90922 15.3216 1.90977 15.3607 1.91034 15.4009C1.89694 15.5163 1.8744 15.5631 1.7929 15.6446C1.61821 15.7028 1.43649 15.6877 1.25354 15.6882C1.18255 15.6885 1.11159 15.6896 1.04061 15.6907C0.973175 15.691 0.973175 15.691 0.904379 15.6913C0.863258 15.6916 0.822137 15.6919 0.77977 15.6923C0.65644 15.6785 0.590794 15.6482 0.492117 15.5743C0.451672 15.4934 0.452785 15.4483 0.45309 15.3584C0.453069 15.3284 0.453049 15.2983 0.453028 15.2674C0.453102 15.2348 0.453176 15.2022 0.453253 15.1686C0.452779 15.0996 0.452251 15.0306 0.451673 14.9617C0.450873 14.8529 0.450367 14.7441 0.450806 14.6353C0.451118 14.5304 0.450097 14.4254 0.448858 14.3205C0.449288 14.2883 0.449718 14.2561 0.450161 14.223C0.446214 14.0119 0.400513 13.8956 0.261704 13.7357C0.190092 13.6514 0.152394 13.5606 0.11199 13.4583C0.0979864 13.4237 0.083983 13.3892 0.0695552 13.3535C-0.0640308 12.9677 -0.00342556 12.5353 0.154837 12.1659C0.493593 11.5175 0.493593 11.5175 0.843679 11.5665Z" fill="#4A3427"/>
<path d="M1.65234 4.04297C3.23016 4.04297 4.80797 4.04297 6.43359 4.04297C6.43359 4.2866 6.43359 4.53023 6.43359 4.78125C5.7749 5.16988 5.06783 5.46288 4.28906 5.44922C4.29233 5.40136 4.29233 5.40136 4.29565 5.35254C4.29559 5.24079 4.29559 5.24079 4.25391 5.15479C4.15862 5.07737 4.08836 5.07961 3.96826 5.08667C3.89909 5.09461 3.89909 5.09461 3.83203 5.13501C3.77913 5.2375 3.79478 5.3357 3.79688 5.44922C3.19985 5.43161 2.64713 5.31389 2.10584 5.05764C2.04381 5.0295 1.97979 5.00589 1.91574 4.98271C1.80835 4.93506 1.80835 4.93506 1.65234 4.78125C1.65234 4.53762 1.65234 4.29398 1.65234 4.04297Z" fill="#4A3427"/>
<path d="M1.65234 5.44922C1.79082 5.49538 1.89775 5.53471 2.02368 5.59863C3.17182 6.12577 4.60424 6.12614 5.78471 5.70836C5.95165 5.64215 6.11355 5.56801 6.27498 5.48918C6.36328 5.44922 6.36328 5.44922 6.43359 5.44922C6.43359 5.68125 6.43359 5.91328 6.43359 6.15234C4.85578 6.15234 3.27797 6.15234 1.65234 6.15234C1.65234 5.92031 1.65234 5.68828 1.65234 5.44922Z" fill="#CDB19A"/>
<path d="M15.1173 14.625C15.2195 14.8108 15.254 15.0177 15.3018 15.2227C15.3071 15.2453 15.3124 15.2679 15.3179 15.2913C15.4118 15.6943 15.4868 16.0998 15.5545 16.5081C15.5591 16.5357 15.5637 16.5634 15.5685 16.5919C15.6446 17.0513 15.6446 17.0513 15.6446 17.2617C15.459 17.2849 15.2733 17.3081 15.0821 17.332C15.0781 16.4289 15.0847 15.5276 15.1173 14.625Z" fill="#CDB19A"/>
<path d="M11.6719 0.597656C12.1238 1.42484 12.1238 1.42484 12.2827 1.73584C12.3018 1.77309 12.321 1.81034 12.3407 1.84872C12.352 1.87673 12.3633 1.90474 12.375 1.93359C12.3576 1.9684 12.3576 1.9684 12.3398 2.00391C12.3141 1.98018 12.3141 1.98018 12.2879 1.95598C12.1255 1.80863 11.9587 1.66887 11.7861 1.53369C11.7655 1.51748 11.7448 1.50126 11.7235 1.48455C11.6159 1.40066 11.5076 1.31803 11.398 1.23679C11.3769 1.22094 11.3557 1.2051 11.3339 1.18877C11.2934 1.15855 11.2527 1.12861 11.2117 1.09899C11.1569 1.05798 11.1569 1.05798 11.0742 0.984375C11.0742 0.94957 11.0742 0.914766 11.0742 0.878906C11.1474 0.81601 11.1474 0.81601 11.2434 0.751465C11.2748 0.729984 11.3062 0.708503 11.3386 0.686371C11.46 0.611823 11.5276 0.597656 11.6719 0.597656Z" fill="#CDB19A"/>
<path d="M14.4141 0.597656C14.6566 0.602928 14.8348 0.715871 15.0117 0.878906C15.0117 0.984375 15.0117 0.984375 14.9598 1.03651C14.9237 1.06359 14.9237 1.06359 14.8869 1.09122C14.847 1.1216 14.847 1.1216 14.8063 1.1526C14.7777 1.17395 14.749 1.19529 14.7195 1.21729C14.6611 1.26165 14.6027 1.30605 14.5444 1.35049C14.5159 1.37208 14.4874 1.39366 14.4581 1.4159C14.358 1.49258 14.2607 1.57188 14.1636 1.65234C14.0161 1.77433 13.8655 1.89098 13.7109 2.00391C13.7708 1.79706 13.867 1.6109 13.9636 1.41943C13.9808 1.38514 13.998 1.35086 14.0158 1.31553C14.1397 1.07058 14.2697 0.831263 14.4141 0.597656Z" fill="#CDB19A"/>
</g>
<defs>
<clipPath id="clip0_479_7014">
<rect width="18" height="18" fill="white"/>
</clipPath>
</defs>
</svg>
